<svg width="45" height="30" viewBox="0 0 45 30" fill="none" xmlns="http://www.w3.org/2000/svg">
<g id="Group 13863">
<g id="Group 13862">
<g id="Battle">
<path id="Vector" d="M12.469 4.11211L10.7888 11.1277L25.1738 5.26173L12.469 4.11211ZM10.6856 11.5994L8.48951 20.8111L22.4029 14.8861L10.6856 11.5994ZM7.67888 21.1648L4.77535 20.9732L9.0938 0L32.6463 2.72667V5.33542L17.937 10.6561L31.423 13.1175L30.2586 16.1242L0 24.4368L7.67888 21.1648Z" fill="black"/>
</g>
<g id="Perp">
<path id="Vector_2" d="M29.4853 22.5283L40.8627 17.7367L30.2241 15.6365L29.4853 22.5283ZM29.4325 22.9927L28.7254 29.5891L25.2531 27.0983L28.0182 14.1483L30.9312 12.9874L44.5566 16.0797L44.9999 18.7816L29.4325 22.9927Z" fill="black"/>
</g>
<g id="of">
<path id="Vector_3" d="M21.0989 21.8944L21.7474 23.7103L24.3285 22.4003L25.82 15.3316L25.1456 14.0605L22.8888 15.0333L21.0989 21.8944ZM18.038 23.6195L20.3077 13.1137L25.7941 11.5443L28.5697 13.5806L26.7798 24.4236L20.9433 26.5248L18.038 23.6195Z" fill="#9122FF"/>
</g>
</g>
</g>
</svg>
