<svg width="20" height="21" viewBox="0 0 20 21" fill="none" xmlns="http://www.w3.org/2000/svg">
<g id="cup">
<path id="Vector" d="M10.125 14.25V16" stroke="#221533" stroke-width="1.5" stroke-linecap="round" stroke-linejoin="round"/>
<path id="Vector_2" d="M5.95837 18.8333H14.2917V18C14.2917 17.0833 13.5417 16.3333 12.625 16.3333H7.62504C6.70837 16.3333 5.95837 17.0833 5.95837 18V18.8333V18.8333Z" stroke="#221533" stroke-width="1.5" stroke-miterlimit="10"/>
<path id="Vector_3" d="M5.125 18.8333H15.125" stroke="#221533" stroke-width="1.5" stroke-linecap="round" stroke-linejoin="round"/>
<path id="Vector_4" d="M9.99996 13.8333C6.77496 13.8333 4.16663 11.225 4.16663 7.99999V5.49999C4.16663 3.65832 5.65829 2.16666 7.49996 2.16666H12.5C14.3416 2.16666 15.8333 3.65832 15.8333 5.49999V7.99999C15.8333 11.225 13.225 13.8333 9.99996 13.8333Z" stroke="#221533" stroke-width="1.5" stroke-linecap="round" stroke-linejoin="round"/>
<path id="Vector_5" d="M4.55828 10.2083C3.93328 10.0083 3.38328 9.64167 2.94995 9.20833C2.19995 8.375 1.69995 7.375 1.69995 6.20833C1.69995 5.04167 2.61662 4.125 3.78328 4.125H4.32495C4.15828 4.50833 4.07495 4.93333 4.07495 5.375V7.875C4.07495 8.70833 4.24995 9.49167 4.55828 10.2083Z" stroke="#221533" stroke-width="1.5" stroke-linecap="round" stroke-linejoin="round"/>
<path id="Vector_6" d="M15.4417 10.2083C16.0667 10.0083 16.6166 9.64167 17.05 9.20833C17.8 8.375 18.3 7.375 18.3 6.20833C18.3 5.04167 17.3833 4.125 16.2166 4.125H15.675C15.8416 4.50833 15.925 4.93333 15.925 5.375V7.875C15.925 8.70833 15.75 9.49167 15.4417 10.2083Z" stroke="#221533" stroke-width="1.5" stroke-linecap="round" stroke-linejoin="round"/>
</g>
</svg>
