<svg width="24" height="24" viewBox="0 0 24 24" fill="none" xmlns="http://www.w3.org/2000/svg">
<g id="vuesax/linear/translate">
<g id="translate">
<path id="Vector" d="M19.06 18.67L16.92 14.4L14.78 18.67" stroke="#8A8AAA" stroke-width="1.5" stroke-linecap="round" stroke-linejoin="round"/>
<path id="Vector_2" d="M15.17 17.91H18.69" stroke="#8A8AAA" stroke-width="1.5" stroke-linecap="round" stroke-linejoin="round"/>
<path id="Vector_3" d="M16.92 22C14.12 22 11.84 19.73 11.84 16.92C11.84 14.12 14.11 11.84 16.92 11.84C19.72 11.84 22 14.11 22 16.92C22 19.73 19.73 22 16.92 22Z" stroke="#8A8AAA" stroke-width="1.5" stroke-linecap="round" stroke-linejoin="round"/>
<path id="Vector_4" d="M5.02 2H8.94C11.01 2 12.01 3.00002 11.96 5.02002V8.94C12.01 11.01 11.01 12.01 8.94 11.96H5.02C3 12 2 11 2 8.92999V5.01001C2 3.00001 3 2 5.02 2Z" stroke="#8A8AAA" stroke-width="1.5" stroke-linecap="round" stroke-linejoin="round"/>
<g id="Group">
<path id="Vector_5" d="M9.00995 5.84998H4.94995" stroke="#8A8AAA" stroke-width="1.5" stroke-linecap="round" stroke-linejoin="round"/>
<path id="Vector_6" d="M6.96997 5.16998V5.84998" stroke="#8A8AAA" stroke-width="1.5" stroke-linecap="round" stroke-linejoin="round"/>
<path id="Vector_7" d="M7.98994 5.84003C7.98994 7.59003 6.61994 9.01001 4.93994 9.01001" stroke="#8A8AAA" stroke-width="1.5" stroke-linecap="round" stroke-linejoin="round"/>
<path id="Vector_8" d="M9.0099 9.01001C8.2799 9.01001 7.61991 8.62 7.15991 8" stroke="#8A8AAA" stroke-width="1.5" stroke-linecap="round" stroke-linejoin="round"/>
</g>
<g id="Group_2">
<path id="Vector_9" d="M2 15C2 18.87 5.13 22 9 22L7.95 20.25" stroke="#8A8AAA" stroke-width="1.5" stroke-linecap="round" stroke-linejoin="round"/>
<path id="Vector_10" d="M22 9C22 5.13 18.87 2 15 2L16.05 3.75" stroke="#8A8AAA" stroke-width="1.5" stroke-linecap="round" stroke-linejoin="round"/>
</g>
</g>
</g>
</svg>
