<svg width="58" height="31" viewBox="0 0 58 31" fill="none" xmlns="http://www.w3.org/2000/svg">
<g id="Group 13896">
<path id="Vector" d="M57.8595 25.6964C57.8595 22.7817 54.3371 21.3205 52.2739 23.3792L50.8809 24.7692C48.7856 26.8599 50.2664 30.4402 53.2264 30.4402C54.161 30.4402 55.0524 30.0463 55.6816 29.3553L57.0065 27.9003C57.5553 27.2975 57.8595 26.5116 57.8595 25.6964Z" fill="white"/>
<path id="Vector_2" d="M57.8595 2.8161C57.8595 1.26081 56.5987 0 55.0434 0C54.2787 0 53.5468 0.311014 53.0161 0.861565L31.0328 23.664C28.5838 26.2042 30.384 30.4402 33.9125 30.4402H39.3726C40.416 30.4402 41.4181 30.0325 42.1652 29.304L56.6521 15.1774C57.4242 14.4245 57.8595 13.3919 57.8595 12.3136V2.8161Z" fill="white"/>
<path id="Vector_3" d="M41.2014 6.79503C43.6757 4.26192 41.881 0 38.3399 0H31.761C30.6921 0 29.6677 0.427795 28.9163 1.18796L6.73376 23.6282C4.23632 26.1546 6.02599 30.4402 9.57848 30.4402H16.4205C17.4977 30.4402 18.5293 30.0058 19.2819 29.2353L41.2014 6.79503Z" fill="white"/>
</g>
</svg>
