<svg width="360" height="311" viewBox="0 0 360 311" fill="none" xmlns="http://www.w3.org/2000/svg">
<path d="M0 76.8C0 49.9175 0 36.4762 5.23169 26.2085C9.83361 17.1767 17.1767 9.83361 26.2085 5.23169C36.4762 0 49.9175 0 76.8 0H283.2C310.083 0 323.524 0 333.792 5.23169C342.823 9.83361 350.166 17.1767 354.768 26.2085C360 36.4762 360 49.9175 360 76.8V169.7C360 196.583 360 210.024 354.768 220.292C350.166 229.323 342.823 236.666 333.792 241.268C323.524 246.5 310.083 246.5 283.2 246.5H261.656C261.595 246.5 261.565 246.5 261.537 246.5C241.162 246.523 223.022 259.408 216.289 278.638C216.28 278.664 216.27 278.693 216.25 278.75V278.75C216.23 278.807 216.22 278.836 216.211 278.862C209.478 298.092 191.338 310.977 170.963 311C170.935 311 170.905 311 170.844 311H76.8C49.9175 311 36.4762 311 26.2085 305.768C17.1767 301.166 9.83361 293.823 5.23169 284.792C0 274.524 0 261.083 0 234.2V76.8Z" fill="#8FFF5B"/>
</svg>
