<svg width="72" height="68" viewBox="0 0 72 68" fill="none" xmlns="http://www.w3.org/2000/svg">
<g id="Group 13902">
<path id="Vector" d="M0 19.5797C0 16.8529 2.21049 14.6424 4.93726 14.6424H13.8789C16.7825 14.6424 19.5575 15.8401 21.5493 17.9528C25.6568 22.3098 32.5641 22.3748 36.7528 18.0958L50.9054 3.63826C53.1832 1.31141 56.3021 0 59.5582 0H65.3689C68.8472 0 71.6668 2.81966 71.6668 6.29789C71.6668 7.96972 71.0021 9.57294 69.8191 10.7543L47.8376 32.7052C47.1002 33.4416 46.1007 33.8552 45.0586 33.8552C41.5936 33.8552 39.8218 38.0113 42.2209 40.5113L59.5076 58.5247C60.4776 59.5355 61.0193 60.8821 61.0193 62.2831C61.0193 65.2809 58.5891 67.7111 55.5913 67.7111H50.0477C47.1109 67.7111 44.2966 66.5337 42.2348 64.4423L1.42142 23.046C0.510608 22.1222 0 20.877 0 19.5797Z" fill="black"/>
<path id="Vector_2" d="M0 53.352C0 50.746 2.1126 48.6334 4.71863 48.6334H10.6418C13.5247 48.6334 16.2842 49.803 18.289 51.8746L26.1593 60.0072C26.9794 60.8547 27.4379 61.9878 27.4379 63.1672C27.4379 65.6767 25.4035 67.7111 22.894 67.7111H16.349C13.2381 67.7111 10.2704 66.4044 8.1698 64.1099L1.23819 56.5382C0.441742 55.6682 0 54.5315 0 53.352Z" fill="black"/>
</g>
</svg>
