<svg width="332" height="181" viewBox="0 0 332 181" fill="none" xmlns="http://www.w3.org/2000/svg">
<path d="M204.138 55.8988L200.57 76.1651L191.673 63.0824L204.233 0L212.796 6.89815L206.231 44.0055L223.833 26.3081L248.571 20.3139L210.322 52.1405L247.858 86.2031L204.138 55.8988Z" fill="black"/>
<path d="M155.519 64.7947L162.988 35.4895L174.929 26.7835L207.992 35.9652L174.786 37.0594L168.078 64.8899L198.763 55.8509L168.459 77.7347L155.519 64.7947Z" fill="black"/>
<path d="M144.337 49.0009L128.638 60.133V65.604L139.342 67.5545L144.337 49.0009ZM150.997 69.6477L154.756 70.3138L150.712 70.9798L149.998 74.5478L136.059 79.7333L137.867 73.1206L120.17 76.0226L119.456 52.664L144.908 46.9552L147.429 37.5832L115.983 21.5985L151.235 26.8316L157.943 36.0133L150.997 69.6477Z" fill="black"/>
<path d="M109.704 86.8691L101.569 63.0824L114.128 0L122.692 6.89815L109.704 86.8691Z" fill="black"/>
<path d="M40.2474 20.0759L34.824 42.7209L81.2557 23.7867L40.2474 20.0759ZM34.491 44.2433L27.4026 73.9767L72.3119 54.8521L34.491 44.2433ZM24.786 75.1184L15.414 74.5L29.3531 6.80295L105.375 15.604V24.0245L57.8972 41.1986L101.427 49.1433L97.6686 58.8483L0.000244141 85.6798L24.786 75.1184Z" fill="black"/>
<path d="M316.599 140.594L321.891 110.87L331.139 124.47L319.616 181.001L310.713 173.829L315.758 145.391L297.755 158.102L290.287 145.935L296.766 110.276L313.829 96.0817L300.871 144.649L316.599 140.594Z" fill="black"/>
<path d="M276.045 134.658L259.724 146.232V151.919L270.852 153.947L276.045 134.658ZM282.969 156.123L286.876 156.816L282.672 157.508L281.93 161.217L267.439 166.608L269.318 159.734L250.92 162.75L250.178 138.467L276.638 132.532L279.259 122.789L246.568 106.171L283.216 111.611L290.19 121.157L282.969 156.123Z" fill="black"/>
<path d="M233.659 145.885L236.824 129.762L226.191 118.337L216.299 150.386L233.659 145.885ZM243.353 156.766L229.801 167.152L232.868 149.94L212.689 163.838L205.715 151.672L213.183 119.623L230.246 105.429L239.594 120.315L246.023 91.432L261.998 77.7322L243.353 156.766Z" fill="black"/>
<path d="M197.357 105.725L200.621 89.4044L209.524 96.5757L207.99 105.973L197.357 105.725ZM207.248 110.523L196.813 174.027L188.356 149.298L196.12 112.056L207.248 110.523Z" fill="#9123FF"/>
<path d="M170.353 124.272L161.105 177.093L153.933 149.297L163.627 104.637L172.529 111.808L171.145 119.623L185.685 107.159L193.648 118.831L180.789 130.404L182.075 120.117L170.353 124.272Z" fill="#9123FF"/>
<path d="M115.652 148.804L108.53 180.556L107.739 101.769L200.274 87.2784L123.268 114.678L118.52 135.846L172.627 121.652L115.652 148.804Z" fill="#9123FF"/>
</svg>
