<svg width="20" height="21" viewBox="0 0 20 21" fill="none" xmlns="http://www.w3.org/2000/svg">
<g id="book">
<path id="Vector" d="M18.3333 14.45V4.39168C18.3333 3.39168 17.5166 2.65001 16.525 2.73335H16.475C14.725 2.88335 12.0666 3.77502 10.5833 4.70835L10.4416 4.80001C10.2 4.95001 9.79996 4.95001 9.55829 4.80001L9.34996 4.67502C7.86663 3.75002 5.21663 2.86668 3.46663 2.72501C2.47496 2.64168 1.66663 3.39168 1.66663 4.38335V14.45C1.66663 15.25 2.31663 16 3.11663 16.1L3.35829 16.1333C5.16663 16.375 7.95829 17.2917 9.55829 18.1667L9.59163 18.1833C9.81663 18.3083 10.175 18.3083 10.3916 18.1833C11.9916 17.3 14.7916 16.375 16.6083 16.1333L16.8833 16.1C17.6833 16 18.3333 15.25 18.3333 14.45Z" stroke="#221533" stroke-width="1.5" stroke-linecap="round" stroke-linejoin="round"/>
<path id="Vector_2" d="M10 5.07501V17.575" stroke="#221533" stroke-width="1.5" stroke-linecap="round" stroke-linejoin="round"/>
<path id="Vector_3" d="M6.45837 7.57501H4.58337" stroke="#221533" stroke-width="1.5" stroke-linecap="round" stroke-linejoin="round"/>
<path id="Vector_4" d="M7.08337 10.075H4.58337" stroke="#221533" stroke-width="1.5" stroke-linecap="round" stroke-linejoin="round"/>
</g>
</svg>
