<svg width="131" height="94" viewBox="0 0 131 94" fill="none" xmlns="http://www.w3.org/2000/svg">
<g id="Group 13903">
<g id="Nov">
<path id="Vector" d="M70.5387 70.2697L59.5955 46.2845H65.6917L72.2376 61.625L78.8336 46.2845H84.68L73.7367 70.2697H70.5387Z" fill="black"/>
<path id="Vector_2" d="M46.0614 70.7693C39.0657 70.7693 33.5192 65.2227 33.5192 58.227C33.5192 51.2813 39.0158 45.7847 46.0614 45.7847C53.1071 45.7847 58.6536 51.2314 58.6536 58.227C58.6536 65.2727 53.157 70.7693 46.0614 70.7693ZM46.0614 65.4726C50.1589 65.4726 53.0071 62.4744 53.0071 58.227C53.0071 54.0296 50.1089 51.0815 46.0614 51.0815C42.0139 51.0815 39.1657 54.0796 39.1657 58.227C39.1657 62.4744 42.0139 65.4726 46.0614 65.4726Z" fill="black"/>
<path id="Vector_3" d="M0 70.2696V35.2913H3.99753L22.4861 59.4263V35.2913H28.2325V70.2696H24.235L5.74645 46.1346V70.2696H0Z" fill="black"/>
</g>
<g id="24">
<path id="Vector_4" d="M60.111 30.3297V26.8319L72.5533 4.34576H79.0493L67.2565 25.1829H76.7007V16.4383H82.3472V25.1829H87.2442V30.3297H82.3472V39.3241H76.7007V30.3297H60.111Z" fill="black"/>
<path id="Vector_5" d="M33.0769 39.3242V35.9263L45.9689 22.2348C49.167 18.8369 50.4662 16.7382 50.4662 14.1897C50.4662 11.0917 48.2175 9.19282 45.0695 9.19282C41.7216 9.19282 39.2731 10.8418 37.2743 14.3396L33.2768 11.0417C35.9751 6.29462 39.9726 3.84613 45.2694 3.84613C51.7654 3.84613 56.1127 8.04353 56.1127 14.1398C56.1127 18.587 54.7135 20.9855 50.3662 25.5327L42.0214 34.1774H56.8122V39.3242H33.0769Z" fill="black"/>
</g>
<line id="Line 647" x1="130.354" y1="0.353553" x2="88.8151" y2="41.892" stroke="black"/>
<line id="Line 648" x1="61.892" y1="73.4305" x2="42.6612" y2="92.6612" stroke="black"/>
</g>
</svg>
